{
    "asset": {
        "generator": "COLLADA2GLTF",
        "version": "2.0"
    },
    "scenes": [
        {
            "nodes": [
                0
            ]
        }
    ],
    "scene": 0,
    "nodes": [
        {
            "children": [
                1
            ],
            "name": "Y_UP"
        },
        {
            "mesh": 0,
            "matrix": [
                -1.0,
                0.0,
                -0.0,
                0.0,
                0.0,
                1.0,
                0.0,
                0.0,
                0.0,
                0.0,
                -1.0,
                0.0,
                -0.0016780599253252149,
                0.00815351027995348,
                0.0,
                1.0
            ],
            "name": "polySurface12"
        }
    ],
    "meshes": [
        {
            "primitives": [
                {
                    "attributes": {
                        "NORMAL": 1,
                        "POSITION": 2
                    },
                    "indices": 0,
                    "mode": 4,
                    "material": 0
                },
                {
                    "attributes": {
                        "NORMAL": 4,
                        "POSITION": 5
                    },
                    "indices": 3,
                    "mode": 4,
                    "material": 1
                },
                {
                    "attributes": {
                        "NORMAL": 7,
                        "POSITION": 8
                    },
                    "indices": 6,
                    "mode": 4,
                    "material": 2
                },
                {
                    "attributes": {
                        "NORMAL": 10,
                        "POSITION": 11
                    },
                    "indices": 9,
                    "mode": 4,
                    "material": 3
                },
                {
                    "attributes": {
                        "NORMAL": 13,
                        "POSITION": 14
                    },
                    "indices": 12,
                    "mode": 4,
                    "material": 4
                },
                {
                    "attributes": {
                        "NORMAL": 16,
                        "POSITION": 17
                    },
                    "indices": 15,
                    "mode": 4,
                    "material": 5
                },
                {
                    "attributes": {
                        "NORMAL": 19,
                        "POSITION": 20
                    },
                    "indices": 18,
                    "mode": 4,
                    "material": 6
                }
            ],
            "name": "polySurface12Mesh"
        }
    ],
    "accessors": [
        {
            "bufferView": 0,
            "byteOffset": 0,
            "componentType": 5123,
            "count": 2628,
            "max": [
                1065
            ],
            "min": [
                0
            ],
            "type": "SCALAR"
        },
        {
            "bufferView": 1,
            "byteOffset": 0,
            "componentType": 5126,
            "count": 1066,
            "max": [
                1.0,
                0.993632972240448,
                1.0
            ],
            "min": [
                -1.0,
                -0.993632972240448,
                -1.0
            ],
            "type": "VEC3"
        },
        {
            "bufferView": 1,
            "byteOffset": 12792,
            "componentType": 5126,
            "count": 1066,
            "max": [
                0.002962909871712327,
                0.016879498958587648,
                0.017848169431090356
            ],
            "min": [
                -0.020783130079507829,
                -0.00815351027995348,
                -0.017848169431090356
            ],
            "type": "VEC3"
        },
        {
            "bufferView": 0,
            "byteOffset": 5256,
            "componentType": 5123,
            "count": 972,
            "max": [
                511
            ],
            "min": [
                0
            ],
            "type": "SCALAR"
        },
        {
            "bufferView": 1,
            "byteOffset": 25584,
            "componentType": 5126,
            "count": 512,
            "max": [
                1.0,
                1.0,
                1.0
            ],
            "min": [
                -1.0,
                -1.0,
                -1.0
            ],
            "type": "VEC3"
        },
        {
            "bufferView": 1,
            "byteOffset": 31728,
            "componentType": 5126,
            "count": 512,
            "max": [
                0.011791889555752278,
                0.020314820110797887,
                0.00878319051116705
            ],
            "min": [
                -0.02025337889790535,
                0.005779929459095001,
                -0.003906129859387875
            ],
            "type": "VEC3"
        },
        {
            "bufferView": 0,
            "byteOffset": 7200,
            "componentType": 5123,
            "count": 492,
            "max": [
                191
            ],
            "min": [
                0
            ],
            "type": "SCALAR"
        },
        {
            "bufferView": 1,
            "byteOffset": 37872,
            "componentType": 5126,
            "count": 192,
            "max": [
                1.0,
                1.0,
                1.0
            ],
            "min": [
                -1.0,
                -1.0,
                -1.0
            ],
            "type": "VEC3"
        },
        {
            "bufferView": 1,
            "byteOffset": 40176,
            "componentType": 5126,
            "count": 192,
            "max": [
                0.0005667899968102574,
                0.004222959745675325,
                0.013435459695756436
            ],
            "min": [
                -0.02214093878865242,
                -0.002417459851130843,
                -0.013435459695756436
            ],
            "type": "VEC3"
        },
        {
            "bufferView": 0,
            "byteOffset": 8184,
            "componentType": 5123,
            "count": 429,
            "max": [
                173
            ],
            "min": [
                0
            ],
            "type": "SCALAR"
        },
        {
            "bufferView": 1,
            "byteOffset": 42480,
            "componentType": 5126,
            "count": 174,
            "max": [
                1.0,
                1.0,
                1.0
            ],
            "min": [
                -1.0,
                -1.0,
                -1.0
            ],
            "type": "VEC3"
        },
        {
            "bufferView": 1,
            "byteOffset": 44568,
            "componentType": 5126,
            "count": 174,
            "max": [
                0.011791889555752278,
                0.02021327987313271,
                0.00878319051116705
            ],
            "min": [
                -0.020384840667247773,
                0.005904830060899258,
                -0.00878319051116705
            ],
            "type": "VEC3"
        },
        {
            "bufferView": 0,
            "byteOffset": 9042,
            "componentType": 5123,
            "count": 210,
            "max": [
                105
            ],
            "min": [
                0
            ],
            "type": "SCALAR"
        },
        {
            "bufferView": 1,
            "byteOffset": 46656,
            "componentType": 5126,
            "count": 106,
            "max": [
                1.0,
                1.0,
                1.0
            ],
            "min": [
                -1.0,
                -1.0,
                -1.0
            ],
            "type": "VEC3"
        },
        {
            "bufferView": 1,
            "byteOffset": 47928,
            "componentType": 5126,
            "count": 106,
            "max": [
                0.0204628799110651,
                0.008139319717884064,
                0.01238888967782259
            ],
            "min": [
                -0.020468568429350858,
                -0.004082089755684137,
                -0.01238888967782259
            ],
            "type": "VEC3"
        },
        {
            "bufferView": 0,
            "byteOffset": 9462,
            "componentType": 5123,
            "count": 576,
            "max": [
                191
            ],
            "min": [
                0
            ],
            "type": "SCALAR"
        },
        {
            "bufferView": 1,
            "byteOffset": 49200,
            "componentType": 5126,
            "count": 192,
            "max": [
                9.999999974752428e-7,
                9.999999974752428e-7,
                1.0
            ],
            "min": [
                -0.0000019999999949504856,
                -9.999999974752428e-7,
                -1.0
            ],
            "type": "VEC3"
        },
        {
            "bufferView": 1,
            "byteOffset": 51504,
            "componentType": 5126,
            "count": 192,
            "max": [
                0.002716060029342771,
                0.009203169494867325,
                0.01745546981692314
            ],
            "min": [
                -0.014393769204616549,
                -0.007906659506261349,
                -0.01745546981692314
            ],
            "type": "VEC3"
        },
        {
            "bufferView": 0,
            "byteOffset": 10614,
            "componentType": 5123,
            "count": 12,
            "max": [
                5
            ],
            "min": [
                0
            ],
            "type": "SCALAR"
        },
        {
            "bufferView": 1,
            "byteOffset": 53808,
            "componentType": 5126,
            "count": 6,
            "max": [
                0.0,
                1.0,
                0.0
            ],
            "min": [
                0.0,
                1.0,
                0.0
            ],
            "type": "VEC3"
        },
        {
            "bufferView": 1,
            "byteOffset": 53880,
            "componentType": 5126,
            "count": 6,
            "max": [
                0.0204628799110651,
                0.0058875796385109428,
                0.01238888967782259
            ],
            "min": [
                -0.020468568429350858,
                0.0058875796385109428,
                -0.01238888967782259
            ],
            "type": "VEC3"
        }
    ],
    "materials": [
        {
            "pbrMetallicRoughness": {
                "baseColorFactor": [
                    0.01678299903869629,
                    0.01678299903869629,
                    0.01678299903869629,
                    1.0
                ],
                "metallicFactor": 0.0
            },
            "emissiveFactor": [
                0.0,
                0.0,
                0.0
            ],
            "name": "rueda"
        },
        {
            "pbrMetallicRoughness": {
                "baseColorFactor": [
                    0.3636359870433808,
                    0.3636359870433808,
                    0.3636359870433808,
                    1.0
                ],
                "metallicFactor": 0.0
            },
            "emissiveFactor": [
                0.0,
                0.0,
                0.0
            ],
            "name": "lambert8"
        },
        {
            "pbrMetallicRoughness": {
                "baseColorFactor": [
                    0.007776000071316958,
                    0.025023000314831738,
                    0.0575999990105629,
                    1.0
                ],
                "metallicFactor": 0.0
            },
            "emissiveFactor": [
                0.0,
                0.0,
                0.0
            ],
            "name": "lambert7"
        },
        {
            "pbrMetallicRoughness": {
                "baseColorFactor": [
                    0.036159999668598178,
                    0.06719999760389328,
                    0.024960000067949296,
                    1.0
                ],
                "metallicFactor": 0.0
            },
            "emissiveFactor": [
                0.0,
                0.0,
                0.0
            ],
            "name": "chip"
        },
        {
            "pbrMetallicRoughness": {
                "baseColorFactor": [
                    0.04278400167822838,
                    0.7376620173454285,
                    0.04278400167822838,
                    1.0
                ],
                "metallicFactor": 0.0
            },
            "emissiveFactor": [
                0.0,
                0.0,
                0.0
            ],
            "name": "cuerpo"
        },
        {
            "pbrMetallicRoughness": {
                "baseColorFactor": [
                    0.5309299826622009,
                    0.800000011920929,
                    0.164000004529953,
                    1.0
                ],
                "metallicFactor": 0.0
            },
            "emissiveFactor": [
                0.0,
                0.0,
                0.0
            ],
            "name": "llanta"
        },
        {
            "pbrMetallicRoughness": {
                "baseColorFactor": [
                    0.0017579999985173345,
                    0.00559999980032444,
                    0.0017579999985173345,
                    1.0
                ],
                "metallicFactor": 0.0
            },
            "emissiveFactor": [
                0.0,
                0.0,
                0.0
            ],
            "name": "lambert6"
        }
    ],
    "bufferViews": [
        {
            "buffer": 0,
            "byteOffset": 53952,
            "byteLength": 10638,
            "target": 34963
        },
        {
            "buffer": 0,
            "byteOffset": 0,
            "byteLength": 53952,
            "byteStride": 12,
            "target": 34962
        }
    ],
    "buffers": [
        {
            "byteLength": 64590,
            "uri": "data:application/octet-stream;base64,"
        }
    ]
}
