<svg height="496pt" viewBox="0 0 496 496" width="496pt" xmlns="http://www.w3.org/2000/svg"><g fill="#ff826e"><path d="m272 16h-48v112h-32l56 80 56-80h-32zm0 0"/><path d="m104 0h-48v72h-32l56 64 56-64h-32zm0 0"/><path d="m440 72v-72h-48v72h-32l56 64 56-64zm0 0"/></g><path d="m358.847656 343.832031h-46.847656l72 112v17h48v-17zm0 0" fill="#aab2bd"/><path d="m136 347.0625-72 108.769531v12h48v-12l72-108.769531zm0 0" fill="#aab2bd"/><path d="m257.511719 247.832031h-19.03125c-39.59375 0-77.136719 17.582031-102.480469 48v15.34375h224v-15.34375c-25.34375-30.417969-62.886719-48-102.488281-48zm0 0" fill="#fcd770"/><path d="m312 343.832031 41.558594 64.65625 16.328125-32.65625h9.867187l-20.90625-32zm0 0" fill="#969faa"/><path d="m136 347.0625-19.039062 28.769531h9.152343l16.710938 33.425781 41.175781-62.195312zm0 0" fill="#969faa"/><path d="m400 263.832031h32v42.015625h-32zm0 0" fill="#838f9b"/><path d="m64 263.832031h32v42.015625h-32zm0 0" fill="#838f9b"/><path d="m136 295.832031v15.34375h224v-15.34375c-4.894531-5.871093-10.367188-11.121093-16.105469-16h-191.789062c-5.738281 4.878907-11.210938 10.121094-16.105469 16zm0 0" fill="#ffc729"/><path d="m8 311.832031v32c0 8.832031 7.160156 16 16 16h112l24 48h176l24-48h112c8.832031 0 16-7.167969 16-16v-32c0-8.832031-7.167969-16-16-16h-448c-8.839844 0-16 7.160157-16 16zm0 0" fill="#ccd1d9"/><path d="m184 343.832031h128v64h-128zm0 0" fill="#fcd770"/><path d="m280 375.832031c0 17.671875-14.328125 32-32 32s-32-14.328125-32-32 14.328125-32 32-32 32 14.328125 32 32zm0 0" fill="#656d78"/><path d="m400 207.832031v-24.007812c0-8.832031 7.160156-16 16-16 8.832031 0 16 7.167969 16 16v24.007812zm0 0" fill="#969faa"/><path d="m360 231.832031h112c8.832031 0 16-7.167969 16-16s-7.167969-16-16-16h-112c-8.839844 0-16 7.167969-16 16s7.160156 16 16 16zm0 0" fill="#ccd1d9"/><path d="m64 207.832031v-24.007812c0-8.832031 7.160156-16 16-16 8.832031 0 16 7.167969 16 16v24.007812zm0 0" fill="#969faa"/><path d="m24 231.832031h112c8.832031 0 16-7.167969 16-16s-7.167969-16-16-16h-112c-8.839844 0-16 7.167969-16 16s7.160156 16 16 16zm0 0" fill="#ccd1d9"/><path d="m448 488h-80v-16c0-8.832031 7.160156-16 16-16h48c8.832031 0 16 7.167969 16 16zm0 0" fill="#838f9b"/><path d="m128 488h-80v-16c0-8.832031 7.160156-16 16-16h48c8.832031 0 16 7.167969 16 16zm0 0" fill="#838f9b"/><path d="m340.945312 416h-185.890624l-24-48h-107.054688c-13.230469 0-24-10.769531-24-24v-32c0-13.230469 10.769531-24 24-24h448c13.230469 0 24 10.769531 24 24v32c0 13.230469-10.769531 24-24 24h-107.054688zm-176-16h166.109376l24-48h116.945312c4.414062 0 8-3.585938 8-8v-32c0-4.414062-3.585938-8-8-8h-448c-4.414062 0-8 3.585938-8 8v32c0 4.414062 3.585938 8 8 8h116.945312zm0 0"/><path d="m320 416h-144v-80h144zm-128-16h112v-48h-112zm0 0"/><path d="m248 416c-22.054688 0-40-17.945312-40-40s17.945312-40 40-40 40 17.945312 40 40-17.945312 40-40 40zm0-64c-13.230469 0-24 10.769531-24 24s10.769531 24 24 24 24-10.769531 24-24-10.769531-24-24-24zm0 0"/><path d="m256 376c0 4.417969-3.582031 8-8 8s-8-3.582031-8-8 3.582031-8 8-8 8 3.582031 8 8zm0 0"/><path d="m416 320h48v16h-48zm0 0"/><path d="m352 320h48v16h-48zm0 0"/><path d="m96 320h48v16h-48zm0 0"/><path d="m32 320h48v16h-48zm0 0"/><path d="m353.847656 301.128906c-23.886718-28.679687-59.007812-45.128906-96.335937-45.128906h-19.03125c-37.328125 0-72.449219 16.449219-96.335938 45.128906l-12.296875-10.25c26.953125-32.335937 66.542969-50.878906 108.640625-50.878906h19.03125c42.097657 0 81.6875 18.542969 108.632813 50.871094zm0 0"/><path d="m361.363281 364.457031 13.3125-8.875 64 96.003907-13.3125 8.875zm0 0"/><path d="m336.96875 396.867188 13.515625-8.578126 40.277344 63.449219-13.515625 8.578125zm0 0"/><path d="m456 496h-96v-24c0-13.230469 10.769531-24 24-24h48c13.230469 0 24 10.769531 24 24zm-80-16h64v-8c0-4.414062-3.585938-8-8-8h-48c-4.414062 0-8 3.585938-8 8zm0 0"/><path d="m57.363281 451.558594 64-96.003906 13.3125 8.875-63.996093 96.003906zm0 0"/><path d="m105.242188 451.730469 40.273437-63.453125 13.515625 8.578125-40.273438 63.453125zm0 0"/><path d="m136 496h-96v-24c0-13.230469 10.769531-24 24-24h48c13.230469 0 24 10.769531 24 24zm-80-16h64v-8c0-4.414062-3.585938-8-8-8h-48c-4.414062 0-8 3.585938-8 8zm0 0"/><path d="m248 221.953125-71.367188-101.953125h39.367188v-104h16v120h-24.632812l40.632812 58.046875 40.632812-58.046875h-24.632812v-120h16v104h39.367188zm0 0"/><path d="m80 148.152344-73.632812-84.152344h41.632812v-64h16v80h-22.367188l38.367188 43.847656 38.367188-43.847656h-22.367188v-80h16v64h41.632812zm0 0"/><path d="m416 148.152344-73.632812-84.152344h41.632812v-64h16v80h-22.367188l38.367188 43.847656 38.367188-43.847656h-22.367188v-80h16v64h41.632812zm0 0"/><path d="m440 296h-16v-24h-16v24h-16v-40h48zm0 0"/><path d="m440 200h-16v-16c0-4.414062-3.585938-8-8-8s-8 3.585938-8 8v16h-16v-16c0-13.230469 10.769531-24 24-24s24 10.769531 24 24zm0 0"/><path d="m472 240h-112c-13.230469 0-24-10.769531-24-24s10.769531-24 24-24h112c13.230469 0 24 10.769531 24 24s-10.769531 24-24 24zm-112-32c-4.414062 0-8 3.585938-8 8s3.585938 8 8 8h112c4.414062 0 8-3.585938 8-8s-3.585938-8-8-8zm0 0"/><path d="m408 232h16v32h-16zm0 0"/><path d="m104 296h-16v-24h-16v24h-16v-40h48zm0 0"/><path d="m104 200h-16v-16c0-4.414062-3.585938-8-8-8s-8 3.585938-8 8v16h-16v-16c0-13.230469 10.769531-24 24-24s24 10.769531 24 24zm0 0"/><path d="m136 240h-112c-13.230469 0-24-10.769531-24-24s10.769531-24 24-24h112c13.230469 0 24 10.769531 24 24s-10.769531 24-24 24zm-112-32c-4.414062 0-8 3.585938-8 8s3.585938 8 8 8h112c4.414062 0 8-3.585938 8-8s-3.585938-8-8-8zm0 0"/><path d="m72 232h16v32h-16zm0 0"/></svg>