<?xml version="1.0" encoding="UTF-8" standalone="no"?>
<svg
   xmlns:dc="http://purl.org/dc/elements/1.1/"
   xmlns:cc="http://creativecommons.org/ns#"
   xmlns:rdf="http://www.w3.org/1999/02/22-rdf-syntax-ns#"
   xmlns:svg="http://www.w3.org/2000/svg"
   xmlns="http://www.w3.org/2000/svg"
   xmlns:sodipodi="http://sodipodi.sourceforge.net/DTD/sodipodi-0.dtd"
   xmlns:inkscape="http://www.inkscape.org/namespaces/inkscape"
   height="496pt"
   viewBox="0 0 496 496"
   width="496pt"
   version="1.1"
   id="svg96"
   sodipodi:docname="takeOff.svg"
   inkscape:version="0.92.3 (2405546, 2018-03-11)">
  <metadata
     id="metadata102">
    <rdf:RDF>
      <cc:Work
         rdf:about="">
        <dc:format>image/svg+xml</dc:format>
        <dc:type
           rdf:resource="http://purl.org/dc/dcmitype/StillImage" />
        <dc:title></dc:title>
      </cc:Work>
    </rdf:RDF>
  </metadata>
  <defs
     id="defs100" />
  <sodipodi:namedview
     pagecolor="#ffffff"
     bordercolor="#666666"
     borderopacity="1"
     objecttolerance="10"
     gridtolerance="10"
     guidetolerance="10"
     inkscape:pageopacity="0"
     inkscape:pageshadow="2"
     inkscape:window-width="1869"
     inkscape:window-height="1025"
     id="namedview98"
     showgrid="false"
     inkscape:zoom="0.71370968"
     inkscape:cx="138.67996"
     inkscape:cy="408.17081"
     inkscape:window-x="51"
     inkscape:window-y="27"
     inkscape:window-maximized="1"
     inkscape:current-layer="svg96" />
  <path
     d="m358.847656 343.832031h-46.847656l72 112v17h48v-17zm0 0"
     fill="#aab2bd"
     id="path10" />
  <path
     d="m136 347.0625-72 108.769531v12h48v-12l72-108.769531zm0 0"
     fill="#aab2bd"
     id="path12" />
  <path
     d="m257.511719 247.832031h-19.03125c-39.59375 0-77.136719 17.582031-102.480469 48v15.34375h224v-15.34375c-25.34375-30.417969-62.886719-48-102.488281-48zm0 0"
     fill="#fcd770"
     id="path14" />
  <path
     d="m312 343.832031 41.558594 64.65625 16.328125-32.65625h9.867187l-20.90625-32zm0 0"
     fill="#969faa"
     id="path16" />
  <path
     d="m136 347.0625-19.039062 28.769531h9.152343l16.710938 33.425781 41.175781-62.195312zm0 0"
     fill="#969faa"
     id="path18" />
  <path
     d="m400 263.832031h32v42.015625h-32zm0 0"
     fill="#838f9b"
     id="path20" />
  <path
     d="m64 263.832031h32v42.015625h-32zm0 0"
     fill="#838f9b"
     id="path22" />
  <path
     d="m136 295.832031v15.34375h224v-15.34375c-4.894531-5.871093-10.367188-11.121093-16.105469-16h-191.789062c-5.738281 4.878907-11.210938 10.121094-16.105469 16zm0 0"
     fill="#ffc729"
     id="path24" />
  <path
     d="m8 311.832031v32c0 8.832031 7.160156 16 16 16h112l24 48h176l24-48h112c8.832031 0 16-7.167969 16-16v-32c0-8.832031-7.167969-16-16-16h-448c-8.839844 0-16 7.160157-16 16zm0 0"
     fill="#ccd1d9"
     id="path26" />
  <path
     d="m184 343.832031h128v64h-128zm0 0"
     fill="#fcd770"
     id="path28" />
  <path
     d="m280 375.832031c0 17.671875-14.328125 32-32 32s-32-14.328125-32-32 14.328125-32 32-32 32 14.328125 32 32zm0 0"
     fill="#656d78"
     id="path30" />
  <path
     d="m400 207.832031v-24.007812c0-8.832031 7.160156-16 16-16 8.832031 0 16 7.167969 16 16v24.007812zm0 0"
     fill="#969faa"
     id="path32" />
  <path
     d="m360 231.832031h112c8.832031 0 16-7.167969 16-16s-7.167969-16-16-16h-112c-8.839844 0-16 7.167969-16 16s7.160156 16 16 16zm0 0"
     fill="#ccd1d9"
     id="path34" />
  <path
     d="m64 207.832031v-24.007812c0-8.832031 7.160156-16 16-16 8.832031 0 16 7.167969 16 16v24.007812zm0 0"
     fill="#969faa"
     id="path36" />
  <path
     d="m24 231.832031h112c8.832031 0 16-7.167969 16-16s-7.167969-16-16-16h-112c-8.839844 0-16 7.167969-16 16s7.160156 16 16 16zm0 0"
     fill="#ccd1d9"
     id="path38" />
  <path
     d="m448 488h-80v-16c0-8.832031 7.160156-16 16-16h48c8.832031 0 16 7.167969 16 16zm0 0"
     fill="#838f9b"
     id="path40" />
  <path
     d="m128 488h-80v-16c0-8.832031 7.160156-16 16-16h48c8.832031 0 16 7.167969 16 16zm0 0"
     fill="#838f9b"
     id="path42" />
  <path
     d="m340.945312 416h-185.890624l-24-48h-107.054688c-13.230469 0-24-10.769531-24-24v-32c0-13.230469 10.769531-24 24-24h448c13.230469 0 24 10.769531 24 24v32c0 13.230469-10.769531 24-24 24h-107.054688zm-176-16h166.109376l24-48h116.945312c4.414062 0 8-3.585938 8-8v-32c0-4.414062-3.585938-8-8-8h-448c-4.414062 0-8 3.585938-8 8v32c0 4.414062 3.585938 8 8 8h116.945312zm0 0"
     id="path44" />
  <path
     d="m320 416h-144v-80h144zm-128-16h112v-48h-112zm0 0"
     id="path46" />
  <path
     d="m248 416c-22.054688 0-40-17.945312-40-40s17.945312-40 40-40 40 17.945312 40 40-17.945312 40-40 40zm0-64c-13.230469 0-24 10.769531-24 24s10.769531 24 24 24 24-10.769531 24-24-10.769531-24-24-24zm0 0"
     id="path48" />
  <path
     d="m256 376c0 4.417969-3.582031 8-8 8s-8-3.582031-8-8 3.582031-8 8-8 8 3.582031 8 8zm0 0"
     id="path50" />
  <path
     d="m416 320h48v16h-48zm0 0"
     id="path52" />
  <path
     d="m352 320h48v16h-48zm0 0"
     id="path54" />
  <path
     d="m96 320h48v16h-48zm0 0"
     id="path56" />
  <path
     d="m32 320h48v16h-48zm0 0"
     id="path58" />
  <path
     d="m353.847656 301.128906c-23.886718-28.679687-59.007812-45.128906-96.335937-45.128906h-19.03125c-37.328125 0-72.449219 16.449219-96.335938 45.128906l-12.296875-10.25c26.953125-32.335937 66.542969-50.878906 108.640625-50.878906h19.03125c42.097657 0 81.6875 18.542969 108.632813 50.871094zm0 0"
     id="path60" />
  <path
     d="m361.363281 364.457031 13.3125-8.875 64 96.003907-13.3125 8.875zm0 0"
     id="path62" />
  <path
     d="m336.96875 396.867188 13.515625-8.578126 40.277344 63.449219-13.515625 8.578125zm0 0"
     id="path64" />
  <path
     d="m456 496h-96v-24c0-13.230469 10.769531-24 24-24h48c13.230469 0 24 10.769531 24 24zm-80-16h64v-8c0-4.414062-3.585938-8-8-8h-48c-4.414062 0-8 3.585938-8 8zm0 0"
     id="path66" />
  <path
     d="m57.363281 451.558594 64-96.003906 13.3125 8.875-63.996093 96.003906zm0 0"
     id="path68" />
  <path
     d="m105.242188 451.730469 40.273437-63.453125 13.515625 8.578125-40.273438 63.453125zm0 0"
     id="path70" />
  <path
     d="m136 496h-96v-24c0-13.230469 10.769531-24 24-24h48c13.230469 0 24 10.769531 24 24zm-80-16h64v-8c0-4.414062-3.585938-8-8-8h-48c-4.414062 0-8 3.585938-8 8zm0 0"
     id="path72" />
  <path
     d="M 248,16 176.63281,117.95313 H 216 v 103.99999 h 16 V 101.95313 H 207.36719 L 248,43.90625 288.63281,101.95313 H 264 v 119.99999 h 16 V 117.95313 h 39.36719 z m 0,0"
     id="path74"
     inkscape:connector-curvature="0" />
  <path
     d="M 80,0 6.367188,84.152344 H 48 V 148.15234 H 64 V 68.152344 H 41.632812 L 80,24.304688 118.36719,68.152344 H 96 v 79.999996 h 16 V 84.152344 h 41.63281 z m 0,0"
     id="path76"
     inkscape:connector-curvature="0" />
  <path
     d="M 416,0 342.36719,84.152344 H 384 v 63.999996 h 16 V 68.152344 H 377.63281 L 416,24.304688 454.36719,68.152344 H 432 v 79.999996 h 16 V 84.152344 h 41.63281 z m 0,0"
     id="path78"
     inkscape:connector-curvature="0" />
  <path
     d="m440 296h-16v-24h-16v24h-16v-40h48zm0 0"
     id="path80" />
  <path
     d="m440 200h-16v-16c0-4.414062-3.585938-8-8-8s-8 3.585938-8 8v16h-16v-16c0-13.230469 10.769531-24 24-24s24 10.769531 24 24zm0 0"
     id="path82" />
  <path
     d="m472 240h-112c-13.230469 0-24-10.769531-24-24s10.769531-24 24-24h112c13.230469 0 24 10.769531 24 24s-10.769531 24-24 24zm-112-32c-4.414062 0-8 3.585938-8 8s3.585938 8 8 8h112c4.414062 0 8-3.585938 8-8s-3.585938-8-8-8zm0 0"
     id="path84" />
  <path
     d="m408 232h16v32h-16zm0 0"
     id="path86" />
  <path
     d="m104 296h-16v-24h-16v24h-16v-40h48zm0 0"
     id="path88" />
  <path
     d="m104 200h-16v-16c0-4.414062-3.585938-8-8-8s-8 3.585938-8 8v16h-16v-16c0-13.230469 10.769531-24 24-24s24 10.769531 24 24zm0 0"
     id="path90" />
  <path
     d="m136 240h-112c-13.230469 0-24-10.769531-24-24s10.769531-24 24-24h112c13.230469 0 24 10.769531 24 24s-10.769531 24-24 24zm-112-32c-4.414062 0-8 3.585938-8 8s3.585938 8 8 8h112c4.414062 0 8-3.585938 8-8s-3.585938-8-8-8zm0 0"
     id="path92" />
  <path
     d="m72 232h16v32h-16zm0 0"
     id="path94" />
  <path
     style="stroke-width:0.70056498;fill:#00ae00;fill-opacity:1"
     d="m 309.69056,214.83912 v -79.16384 h -16.17138 c -8.89425,0 -16.06629,-0.2611 -15.93785,-0.58022 0.46803,-1.16289 52.7862,-75.73378 53.12618,-75.722576 0.19265,0.0063 12.27283,17.09826 26.84485,37.982026 l 26.49457,37.97048 -16.16124,0.18806 -16.16123,0.18805 v 79.15093 79.15093 h -21.01695 -21.01695 z"
     id="path104"
     inkscape:connector-curvature="0"
     transform="scale(0.75000002)" />
  <path
     style="fill:#00ae00;fill-opacity:1;stroke-width:0.70056498"
     d="m 310.04084,214.83912 v -79.16384 l -7.88136,-0.004 c -9.91438,-0.004 -23.65086,-0.77698 -23.62287,-1.32952 0.0216,-0.42644 26.62007,-38.537221 43.01114,-61.627165 7.24516,-10.206178 9.22547,-12.575103 9.90815,-11.852508 1.29532,1.371047 51.4437,73.205523 51.4437,73.689933 0,0.23221 -4.20751,0.4222 -9.35001,0.4222 -5.1425,0 -12.23572,0.20483 -15.76271,0.45519 l -6.41271,0.45519 v 79.05893 79.05894 h -20.66666 -20.66667 z"
     id="path4615"
     inkscape:connector-curvature="0"
     transform="scale(0.75000002)" />
  <path
     style="fill:#00ae00;fill-opacity:1;stroke-width:0.70056498"
     d="m 310.04084,214.94983 v -79.05314 l -15.50149,-0.43329 c -8.52582,-0.23831 -15.65862,-0.59042 -15.85067,-0.78247 -0.19205,-0.19205 2.88844,-5.01214 6.84554,-10.71132 9.83773,-14.16868 42.426,-60.412985 44.02203,-62.469353 l 1.29347,-1.666544 14.00331,19.881233 c 20.61354,29.266114 38.04657,54.402784 38.04657,54.859324 0,0.22024 -3.73401,0.40044 -8.2978,0.40044 -4.56379,0 -11.65701,0.20553 -15.76271,0.45675 l -7.46492,0.45674 v 79.05738 79.05738 h -20.66666 -20.66667 z"
     id="path4617"
     inkscape:connector-curvature="0"
     transform="scale(0.75000002)" />
  <path
     style="fill:#00ae00;fill-opacity:1;stroke-width:0.70056498"
     d="m 361.3184,135.85346 c 4.12073,-0.12364 11.05632,-0.12407 15.41243,-9.6e-4 4.3561,0.12311 0.98459,0.22427 -7.49225,0.2248 -8.47684,5.3e-4 -12.04092,-0.10019 -7.92018,-0.22384 z"
     id="path4619"
     inkscape:connector-curvature="0"
     transform="scale(0.75000002)" />
  <path
     style="fill:#00ae00;fill-opacity:1;stroke-width:0.52542377"
     d="m 397.58475,46.190145 c -10.11441,11.587471 -18.46864,21.264586 -18.56497,21.504706 -0.0963,0.24012 4.69159,0.43659 10.63983,0.43659 h 10.81497 v 39.932199 39.93221 H 416.23729 432 V 108.07409 68.152344 l 10.98334,-0.14181 10.98332,-0.141803 -18.61359,-21.279668 c -10.23748,-11.70381 -18.7857,-21.321818 -18.99604,-21.373343 -0.21035,-0.05153 -8.65788,9.386963 -18.77228,20.974425 z"
     id="path4621"
     inkscape:connector-curvature="0" />
  <path
     style="fill:#00ae00;fill-opacity:1;stroke-width:0.52542377"
     d="M 60.697835,46.457709 41.973545,67.868732 52.986773,68.010534 64,68.152344 v 39.921746 39.92176 H 79.762714 95.525427 V 108.0743 68.152764 L 106.38583,68.010744 117.24624,67.868732 98.495442,46.457709 C 88.182507,34.681651 79.672077,25.046693 79.583382,25.046693 c -0.08869,0 -8.587187,9.634958 -18.885547,21.411016 z"
     id="path4623"
     inkscape:connector-curvature="0" />
</svg>
