{
    "asset" : {
        "version" : "2.0",
        "generator" : "Khronos glTF Blender I/O v0.9.12"
    },
    "scene" : 0,
    "scenes" : [
        {
            "name" : "Scene",
            "nodes" : [
                0,
                1,
                2,
                3,
                4,
                5,
                6,
                7,
                8,
                9,
                10,
                11,
                12,
                13,
                14,
                15,
                16,
                17,
                18,
                19,
                20,
                21
            ]
        }
    ],
    "nodes" : [
        {
            "mesh" : 0,
            "name" : "Cube_031_Cube.032",
            "rotation" : [
                0.7071068286895752,
                0,
                0,
                0.7071067094802856
            ]
        },
        {
            "mesh" : 1,
            "name" : "Cube_032_Cube.033",
            "rotation" : [
                0.7071068286895752,
                0,
                0,
                0.7071067094802856
            ]
        },
        {
            "translation" : [
                7.481131553649902,
                5.343664646148682,
                6.507641792297363
            ],
            "name" : "Camera.008",
            "rotation" : [
                0.8937963247299194,
                0.09062855690717697,
                -0.3857799172401428,
                0.20997287333011627
            ]
        },
        {
            "translation" : [
                4.076245307922363,
                5.903862476348877,
                -1.0054532289505005
            ],
            "name" : "Lamp.008",
            "rotation" : [
                0.5232754349708557,
                0.3420339822769165,
                -0.7269423604011536,
                0.2841661274433136
            ]
        },
        {
            "translation" : [
                7.481131553649902,
                5.343664646148682,
                6.507641792297363
            ],
            "name" : "Camera.007",
            "rotation" : [
                0.8937963247299194,
                0.09062855690717697,
                -0.3857799172401428,
                0.20997287333011627
            ]
        },
        {
            "translation" : [
                4.076245307922363,
                5.903862476348877,
                -1.0054532289505005
            ],
            "name" : "Lamp.007",
            "rotation" : [
                0.5232754349708557,
                0.3420339822769165,
                -0.7269423604011536,
                0.2841661274433136
            ]
        },
        {
            "name" : "Yup2Zup.001",
            "rotation" : [
                0.7071067690849304,
                0,
                0,
                0.7071067690849304
            ]
        },
        {
            "name" : "Yup2Zup",
            "rotation" : [
                0.7071067690849304,
                0,
                0,
                0.7071067690849304
            ]
        },
        {
            "translation" : [
                7.481131553649902,
                5.343664646148682,
                6.507641792297363
            ],
            "name" : "Camera.006",
            "rotation" : [
                0.8937963247299194,
                0.09062855690717697,
                -0.3857799172401428,
                0.20997287333011627
            ]
        },
        {
            "translation" : [
                4.076245307922363,
                5.903862476348877,
                -1.0054532289505005
            ],
            "name" : "Lamp.006",
            "rotation" : [
                0.5232754349708557,
                0.3420339822769165,
                -0.7269423604011536,
                0.2841661274433136
            ]
        },
        {
            "translation" : [
                7.481131553649902,
                5.343664646148682,
                6.507641792297363
            ],
            "name" : "Camera.005",
            "rotation" : [
                0.8937963247299194,
                0.09062855690717697,
                -0.3857799172401428,
                0.20997287333011627
            ]
        },
        {
            "translation" : [
                4.076245307922363,
                5.903862476348877,
                -1.0054532289505005
            ],
            "name" : "Lamp.005",
            "rotation" : [
                0.5232754349708557,
                0.3420339822769165,
                -0.7269423604011536,
                0.2841661274433136
            ]
        },
        {
            "translation" : [
                7.481131553649902,
                5.343664646148682,
                6.507641792297363
            ],
            "name" : "Camera.004",
            "rotation" : [
                0.8937963247299194,
                0.09062855690717697,
                -0.3857799172401428,
                0.20997287333011627
            ]
        },
        {
            "translation" : [
                4.076245307922363,
                5.903862476348877,
                -1.0054532289505005
            ],
            "name" : "Lamp.004",
            "rotation" : [
                0.5232754349708557,
                0.3420339822769165,
                -0.7269423604011536,
                0.2841661274433136
            ]
        },
        {
            "translation" : [
                7.481131553649902,
                5.343664646148682,
                6.507641792297363
            ],
            "name" : "Camera.003",
            "rotation" : [
                0.8937963247299194,
                0.09062855690717697,
                -0.3857799172401428,
                0.20997287333011627
            ]
        },
        {
            "translation" : [
                4.076245307922363,
                5.903862476348877,
                -1.0054532289505005
            ],
            "name" : "Lamp.003",
            "rotation" : [
                0.5232754349708557,
                0.3420339822769165,
                -0.7269423604011536,
                0.2841661274433136
            ]
        },
        {
            "translation" : [
                7.481131553649902,
                5.343664646148682,
                6.507641792297363
            ],
            "name" : "Camera.002",
            "rotation" : [
                0.8937963247299194,
                0.09062855690717697,
                -0.3857799172401428,
                0.20997287333011627
            ]
        },
        {
            "translation" : [
                4.076245307922363,
                5.903862476348877,
                -1.0054532289505005
            ],
            "name" : "Lamp.002",
            "rotation" : [
                0.5232754349708557,
                0.3420339822769165,
                -0.7269423604011536,
                0.2841661274433136
            ]
        },
        {
            "translation" : [
                7.481131553649902,
                5.343664646148682,
                6.507641792297363
            ],
            "name" : "Camera.001",
            "rotation" : [
                0.8937963247299194,
                0.09062855690717697,
                -0.3857799172401428,
                0.20997287333011627
            ]
        },
        {
            "translation" : [
                4.076245307922363,
                5.903862476348877,
                -1.0054532289505005
            ],
            "name" : "Lamp.001",
            "rotation" : [
                0.5232754349708557,
                0.3420339822769165,
                -0.7269423604011536,
                0.2841661274433136
            ]
        },
        {
            "translation" : [
                4.076245307922363,
                5.903861999511719,
                -1.0054539442062378
            ],
            "name" : "Lamp",
            "rotation" : [
                0.16907575726509094,
                0.7558803558349609,
                -0.27217137813568115,
                0.570947527885437
            ]
        },
        {
            "translation" : [
                7.481131553649902,
                5.34366512298584,
                6.5076398849487305
            ],
            "name" : "Camera",
            "rotation" : [
                0.483536034822464,
                0.33687159419059753,
                -0.20870360732078552,
                0.7804827094078064
            ]
        }
    ],
    "materials" : [
        {
            "pbrMetallicRoughness" : {},
            "name" : "BMD_BeechWood.010"
        },
        {
            "pbrMetallicRoughness" : {},
            "name" : "mouse.006"
        }
    ],
    "meshes" : [
        {
            "primitives" : [
                {
                    "attributes" : {
                        "POSITION" : 0,
                        "NORMAL" : 1
                    },
                    "indices" : 2,
                    "material" : 0
                }
            ],
            "name" : "Cube_031_Cube.032"
        },
        {
            "primitives" : [
                {
                    "attributes" : {
                        "POSITION" : 3,
                        "NORMAL" : 4
                    },
                    "indices" : 5,
                    "material" : 1
                }
            ],
            "name" : "Cube_032_Cube.033"
        }
    ],
    "accessors" : [
        {
            "min" : [
                1.0615390539169312,
                -5.466825008392334,
                -0.7611160278320312
            ],
            "bufferView" : 0,
            "count" : 824,
            "componentType" : 5126,
            "type" : "VEC3",
            "max" : [
                1.489812970161438,
                -5.03400182723999,
                -0.1460919976234436
            ]
        },
        {
            "count" : 824,
            "componentType" : 5126,
            "bufferView" : 1,
            "type" : "VEC3"
        },
        {
            "count" : 1128,
            "componentType" : 5123,
            "bufferView" : 2,
            "type" : "SCALAR"
        },
        {
            "min" : [
                1.0708309412002563,
                -5.459943771362305,
                -0.4890519976615906
            ],
            "bufferView" : 3,
            "count" : 235,
            "componentType" : 5126,
            "type" : "VEC3",
            "max" : [
                1.4802550077438354,
                -5.100024223327637,
                -0.4681220054626465
            ]
        },
        {
            "count" : 235,
            "componentType" : 5126,
            "bufferView" : 4,
            "type" : "VEC3"
        },
        {
            "count" : 648,
            "componentType" : 5123,
            "bufferView" : 5,
            "type" : "SCALAR"
        }
    ],
    "bufferViews" : [
        {
            "byteLength" : 9888,
            "byteOffset" : 0,
            "buffer" : 0
        },
        {
            "byteLength" : 9888,
            "byteOffset" : 9888,
            "buffer" : 0
        },
        {
            "byteLength" : 2256,
            "byteOffset" : 19776,
            "buffer" : 0
        },
        {
            "byteLength" : 2820,
            "byteOffset" : 22032,
            "buffer" : 0
        },
        {
            "byteLength" : 2820,
            "byteOffset" : 24852,
            "buffer" : 0
        },
        {
            "byteLength" : 1296,
            "byteOffset" : 27672,
            "buffer" : 0
        }
    ],
    "buffers" : [
        {
            "uri" : "data:application/octet-stream;base64,",
            "byteLength" : 28968
        }
    ]
}
