{
    "asset" : {
        "version" : "2.0",
        "generator" : "Khronos glTF Blender I/O v0.9.12"
    },
    "scene" : 0,
    "scenes" : [
        {
            "name" : "Scene",
            "nodes" : [
                0,
                1,
                2,
                3,
                4,
                5
            ]
        }
    ],
    "nodes" : [
        {
            "translation" : [
                7.481131553649902,
                5.343664646148682,
                6.507641792297363
            ],
            "name" : "Camera.001",
            "rotation" : [
                0.8937963247299194,
                0.09062855690717697,
                -0.3857799172401428,
                0.20997287333011627
            ]
        },
        {
            "translation" : [
                4.076245307922363,
                5.903862476348877,
                -1.0054532289505005
            ],
            "name" : "Lamp.001",
            "rotation" : [
                0.5232754349708557,
                0.3420339822769165,
                -0.7269423604011536,
                0.2841661274433136
            ]
        },
        {
            "mesh" : 0,
            "name" : "Cube_022_Cube.023",
            "rotation" : [
                1,
                0,
                0,
                -1.3435885648505064e-07
            ]
        },
        {
            "mesh" : 1,
            "name" : "Cube_021_Cube.020",
            "rotation" : [
                1,
                0,
                0,
                -1.3435885648505064e-07
            ]
        },
        {
            "translation" : [
                4.076245307922363,
                5.903861999511719,
                -1.0054539442062378
            ],
            "name" : "Lamp",
            "rotation" : [
                0.16907575726509094,
                0.7558803558349609,
                -0.27217137813568115,
                0.570947527885437
            ]
        },
        {
            "translation" : [
                7.481131553649902,
                5.34366512298584,
                6.5076398849487305
            ],
            "name" : "Camera",
            "rotation" : [
                0.483536034822464,
                0.33687159419059753,
                -0.20870360732078552,
                0.7804827094078064
            ]
        }
    ],
    "materials" : [
        {
            "pbrMetallicRoughness" : {
                "baseColorFactor" : [
                    0.7340260148048401,
                    0.3233200013637543,
                    0.07434900104999542,
                    1
                ],
                "metallicFactor" : 0,
                "roughnessFactor" : 1
            },
            "name" : "BMD_BeechWood.003"
        },
        {
            "pbrMetallicRoughness" : {
                "baseColorFactor" : [
                    0.6399999856948853,
                    0.004726000130176544,
                    0.013686999678611755,
                    1
                ],
                "metallicFactor" : 0,
                "roughnessFactor" : 1
            },
            "name" : "mouse.003"
        }
    ],
    "meshes" : [
        {
            "primitives" : [
                {
                    "attributes" : {
                        "POSITION" : 0,
                        "NORMAL" : 1
                    },
                    "indices" : 2,
                    "material" : 0
                }
            ],
            "name" : "Cube_022_Cube.023"
        },
        {
            "primitives" : [
                {
                    "attributes" : {
                        "POSITION" : 3,
                        "NORMAL" : 4
                    },
                    "indices" : 5,
                    "material" : 1
                }
            ],
            "name" : "Cube_021_Cube.020"
        }
    ],
    "accessors" : [
        {
            "min" : [
                -0.7670440077781677,
                -0.7611160278320312,
                5.928971767425537
            ],
            "bufferView" : 0,
            "count" : 827,
            "componentType" : 5126,
            "type" : "VEC3",
            "max" : [
                -0.3342219889163971,
                -0.1460919976234436,
                6.3572468757629395
            ]
        },
        {
            "count" : 827,
            "componentType" : 5126,
            "bufferView" : 1,
            "type" : "VEC3"
        },
        {
            "count" : 1128,
            "componentType" : 5123,
            "bufferView" : 2,
            "type" : "SCALAR"
        },
        {
            "min" : [
                -0.7010220289230347,
                -0.4890519976615906,
                5.938529968261719
            ],
            "bufferView" : 3,
            "count" : 265,
            "componentType" : 5126,
            "type" : "VEC3",
            "max" : [
                -0.3411020040512085,
                -0.4681220054626465,
                6.347953796386719
            ]
        },
        {
            "count" : 265,
            "componentType" : 5126,
            "bufferView" : 4,
            "type" : "VEC3"
        },
        {
            "count" : 648,
            "componentType" : 5123,
            "bufferView" : 5,
            "type" : "SCALAR"
        }
    ],
    "bufferViews" : [
        {
            "byteLength" : 9924,
            "byteOffset" : 0,
            "buffer" : 0
        },
        {
            "byteLength" : 9924,
            "byteOffset" : 9924,
            "buffer" : 0
        },
        {
            "byteLength" : 2256,
            "byteOffset" : 19848,
            "buffer" : 0
        },
        {
            "byteLength" : 3180,
            "byteOffset" : 22104,
            "buffer" : 0
        },
        {
            "byteLength" : 3180,
            "byteOffset" : 25284,
            "buffer" : 0
        },
        {
            "byteLength" : 1296,
            "byteOffset" : 28464,
            "buffer" : 0
        }
    ],
    "buffers" : [
        {
            "uri" : "data:application/octet-stream;base64,",
            "byteLength" : 29760
        }
    ]
}
