{
    "asset" : {
        "version" : "2.0",
        "generator" : "Khronos glTF Blender I/O v0.9.12"
    },
    "scene" : 0,
    "scenes" : [
        {
            "name" : "Scene",
            "nodes" : [
                0,
                1,
                2,
                3,
                4,
                5,
                6,
                7,
                8,
                9,
                10,
                11,
                12,
                13,
                14,
                15,
                16,
                17,
                18,
                19,
                20,
                21,
                22
            ]
        }
    ],
    "nodes" : [
        {
            "mesh" : 0,
            "name" : "Cube_017_Cube.017",
            "rotation" : [
                0.7071068286895752,
                0,
                0,
                0.7071067094802856
            ]
        },
        {
            "mesh" : 1,
            "name" : "Cube_018_Cube.018",
            "rotation" : [
                0.7071068286895752,
                0,
                0,
                0.7071067094802856
            ]
        },
        {
            "mesh" : 2,
            "name" : "Plane_004_Plane.005",
            "rotation" : [
                0.7071068286895752,
                0,
                0,
                0.7071067094802856
            ]
        },
        {
            "translation" : [
                7.481131553649902,
                5.343664646148682,
                6.507641792297363
            ],
            "name" : "Camera.008",
            "rotation" : [
                0.8937963247299194,
                0.09062855690717697,
                -0.3857799172401428,
                0.20997287333011627
            ]
        },
        {
            "translation" : [
                4.076245307922363,
                5.903862476348877,
                -1.0054532289505005
            ],
            "name" : "Lamp.008",
            "rotation" : [
                0.5232754349708557,
                0.3420339822769165,
                -0.7269423604011536,
                0.2841661274433136
            ]
        },
        {
            "translation" : [
                7.481131553649902,
                5.343664646148682,
                6.507641792297363
            ],
            "name" : "Camera.007",
            "rotation" : [
                0.8937963247299194,
                0.09062855690717697,
                -0.3857799172401428,
                0.20997287333011627
            ]
        },
        {
            "translation" : [
                4.076245307922363,
                5.903862476348877,
                -1.0054532289505005
            ],
            "name" : "Lamp.007",
            "rotation" : [
                0.5232754349708557,
                0.3420339822769165,
                -0.7269423604011536,
                0.2841661274433136
            ]
        },
        {
            "name" : "Yup2Zup.001",
            "rotation" : [
                0.7071067690849304,
                0,
                0,
                0.7071067690849304
            ]
        },
        {
            "name" : "Yup2Zup",
            "rotation" : [
                0.7071067690849304,
                0,
                0,
                0.7071067690849304
            ]
        },
        {
            "translation" : [
                7.481131553649902,
                5.343664646148682,
                6.507641792297363
            ],
            "name" : "Camera.006",
            "rotation" : [
                0.8937963247299194,
                0.09062855690717697,
                -0.3857799172401428,
                0.20997287333011627
            ]
        },
        {
            "translation" : [
                4.076245307922363,
                5.903862476348877,
                -1.0054532289505005
            ],
            "name" : "Lamp.006",
            "rotation" : [
                0.5232754349708557,
                0.3420339822769165,
                -0.7269423604011536,
                0.2841661274433136
            ]
        },
        {
            "translation" : [
                7.481131553649902,
                5.343664646148682,
                6.507641792297363
            ],
            "name" : "Camera.005",
            "rotation" : [
                0.8937963247299194,
                0.09062855690717697,
                -0.3857799172401428,
                0.20997287333011627
            ]
        },
        {
            "translation" : [
                4.076245307922363,
                5.903862476348877,
                -1.0054532289505005
            ],
            "name" : "Lamp.005",
            "rotation" : [
                0.5232754349708557,
                0.3420339822769165,
                -0.7269423604011536,
                0.2841661274433136
            ]
        },
        {
            "translation" : [
                7.481131553649902,
                5.343664646148682,
                6.507641792297363
            ],
            "name" : "Camera.004",
            "rotation" : [
                0.8937963247299194,
                0.09062855690717697,
                -0.3857799172401428,
                0.20997287333011627
            ]
        },
        {
            "translation" : [
                4.076245307922363,
                5.903862476348877,
                -1.0054532289505005
            ],
            "name" : "Lamp.004",
            "rotation" : [
                0.5232754349708557,
                0.3420339822769165,
                -0.7269423604011536,
                0.2841661274433136
            ]
        },
        {
            "translation" : [
                7.481131553649902,
                5.343664646148682,
                6.507641792297363
            ],
            "name" : "Camera.003",
            "rotation" : [
                0.8937963247299194,
                0.09062855690717697,
                -0.3857799172401428,
                0.20997287333011627
            ]
        },
        {
            "translation" : [
                4.076245307922363,
                5.903862476348877,
                -1.0054532289505005
            ],
            "name" : "Lamp.003",
            "rotation" : [
                0.5232754349708557,
                0.3420339822769165,
                -0.7269423604011536,
                0.2841661274433136
            ]
        },
        {
            "translation" : [
                7.481131553649902,
                5.343664646148682,
                6.507641792297363
            ],
            "name" : "Camera.002",
            "rotation" : [
                0.8937963247299194,
                0.09062855690717697,
                -0.3857799172401428,
                0.20997287333011627
            ]
        },
        {
            "translation" : [
                4.076245307922363,
                5.903862476348877,
                -1.0054532289505005
            ],
            "name" : "Lamp.002",
            "rotation" : [
                0.5232754349708557,
                0.3420339822769165,
                -0.7269423604011536,
                0.2841661274433136
            ]
        },
        {
            "translation" : [
                7.481131553649902,
                5.343664646148682,
                6.507641792297363
            ],
            "name" : "Camera.001",
            "rotation" : [
                0.8937963247299194,
                0.09062855690717697,
                -0.3857799172401428,
                0.20997287333011627
            ]
        },
        {
            "translation" : [
                4.076245307922363,
                5.903862476348877,
                -1.0054532289505005
            ],
            "name" : "Lamp.001",
            "rotation" : [
                0.5232754349708557,
                0.3420339822769165,
                -0.7269423604011536,
                0.2841661274433136
            ]
        },
        {
            "translation" : [
                4.076245307922363,
                5.903861999511719,
                -1.0054539442062378
            ],
            "name" : "Lamp",
            "rotation" : [
                0.16907575726509094,
                0.7558803558349609,
                -0.27217137813568115,
                0.570947527885437
            ]
        },
        {
            "translation" : [
                7.481131553649902,
                5.34366512298584,
                6.5076398849487305
            ],
            "name" : "Camera",
            "rotation" : [
                0.483536034822464,
                0.33687159419059753,
                -0.20870360732078552,
                0.7804827094078064
            ]
        }
    ],
    "materials" : [
        {
            "pbrMetallicRoughness" : {},
            "name" : "pages"
        },
        {
            "pbrMetallicRoughness" : {},
            "name" : "books"
        },
        {
            "pbrMetallicRoughness" : {},
            "name" : "Material_002"
        },
        {
            "pbrMetallicRoughness" : {},
            "name" : "pc"
        },
        {
            "pbrMetallicRoughness" : {},
            "name" : "mouse.009"
        }
    ],
    "meshes" : [
        {
            "primitives" : [
                {
                    "attributes" : {
                        "POSITION" : 0,
                        "NORMAL" : 1
                    },
                    "indices" : 2,
                    "material" : 0
                },
                {
                    "attributes" : {
                        "POSITION" : 3,
                        "NORMAL" : 4
                    },
                    "indices" : 5,
                    "material" : 1
                }
            ],
            "name" : "Cube_017_Cube.017"
        },
        {
            "primitives" : [
                {
                    "attributes" : {
                        "POSITION" : 6,
                        "NORMAL" : 7
                    },
                    "indices" : 8,
                    "material" : 2
                },
                {
                    "attributes" : {
                        "POSITION" : 9,
                        "NORMAL" : 10
                    },
                    "indices" : 11,
                    "material" : 3
                }
            ],
            "name" : "Cube_018_Cube.018"
        },
        {
            "primitives" : [
                {
                    "attributes" : {
                        "POSITION" : 12,
                        "NORMAL" : 13
                    },
                    "indices" : 14,
                    "material" : 4
                }
            ],
            "name" : "Plane_004_Plane.005"
        }
    ],
    "accessors" : [
        {
            "min" : [
                -5.102077007293701,
                -8.034605026245117,
                -0.9925400018692017
            ],
            "bufferView" : 0,
            "count" : 379,
            "componentType" : 5126,
            "type" : "VEC3",
            "max" : [
                -4.852280139923096,
                -7.85972785949707,
                -0.9619590044021606
            ]
        },
        {
            "count" : 379,
            "componentType" : 5126,
            "bufferView" : 1,
            "type" : "VEC3"
        },
        {
            "count" : 753,
            "componentType" : 5123,
            "bufferView" : 2,
            "type" : "SCALAR"
        },
        {
            "min" : [
                -5.102077007293701,
                -8.034605026245117,
                -0.9977489709854126
            ],
            "bufferView" : 3,
            "count" : 357,
            "componentType" : 5126,
            "type" : "VEC3",
            "max" : [
                -4.852280139923096,
                -7.849930763244629,
                -0.9599260091781616
            ]
        },
        {
            "count" : 357,
            "componentType" : 5126,
            "bufferView" : 4,
            "type" : "VEC3"
        },
        {
            "count" : 573,
            "componentType" : 5123,
            "bufferView" : 5,
            "type" : "SCALAR"
        },
        {
            "min" : [
                -4.966847896575928,
                -7.2427849769592285,
                -1.2532609701156616
            ],
            "bufferView" : 6,
            "count" : 4,
            "componentType" : 5126,
            "type" : "VEC3",
            "max" : [
                -4.966847896575928,
                -6.658594131469727,
                -0.9846540093421936
            ]
        },
        {
            "count" : 4,
            "componentType" : 5126,
            "bufferView" : 7,
            "type" : "VEC3"
        },
        {
            "count" : 6,
            "componentType" : 5123,
            "bufferView" : 8,
            "type" : "SCALAR"
        },
        {
            "min" : [
                -5.122265815734863,
                -7.247416019439697,
                -1.2599550485610962
            ],
            "bufferView" : 9,
            "count" : 240,
            "componentType" : 5126,
            "type" : "VEC3",
            "max" : [
                -4.926278114318848,
                -6.653963088989258,
                -0.8462129831314087
            ]
        },
        {
            "count" : 240,
            "componentType" : 5126,
            "bufferView" : 10,
            "type" : "VEC3"
        },
        {
            "count" : 534,
            "componentType" : 5123,
            "bufferView" : 11,
            "type" : "SCALAR"
        },
        {
            "min" : [
                -4.675012111663818,
                -7.244744777679443,
                -0.8752610087394714
            ],
            "bufferView" : 12,
            "count" : 586,
            "componentType" : 5126,
            "type" : "VEC3",
            "max" : [
                -4.581274032592773,
                -7.188115119934082,
                -0.85104900598526
            ]
        },
        {
            "count" : 586,
            "componentType" : 5126,
            "bufferView" : 13,
            "type" : "VEC3"
        },
        {
            "count" : 1188,
            "componentType" : 5123,
            "bufferView" : 14,
            "type" : "SCALAR"
        }
    ],
    "bufferViews" : [
        {
            "byteLength" : 4548,
            "byteOffset" : 0,
            "buffer" : 0
        },
        {
            "byteLength" : 4548,
            "byteOffset" : 4548,
            "buffer" : 0
        },
        {
            "byteLength" : 1506,
            "byteOffset" : 9096,
            "buffer" : 0
        },
        {
            "byteLength" : 4284,
            "byteOffset" : 10604,
            "buffer" : 0
        },
        {
            "byteLength" : 4284,
            "byteOffset" : 14888,
            "buffer" : 0
        },
        {
            "byteLength" : 1146,
            "byteOffset" : 19172,
            "buffer" : 0
        },
        {
            "byteLength" : 48,
            "byteOffset" : 20320,
            "buffer" : 0
        },
        {
            "byteLength" : 48,
            "byteOffset" : 20368,
            "buffer" : 0
        },
        {
            "byteLength" : 12,
            "byteOffset" : 20416,
            "buffer" : 0
        },
        {
            "byteLength" : 2880,
            "byteOffset" : 20428,
            "buffer" : 0
        },
        {
            "byteLength" : 2880,
            "byteOffset" : 23308,
            "buffer" : 0
        },
        {
            "byteLength" : 1068,
            "byteOffset" : 26188,
            "buffer" : 0
        },
        {
            "byteLength" : 7032,
            "byteOffset" : 27256,
            "buffer" : 0
        },
        {
            "byteLength" : 7032,
            "byteOffset" : 34288,
            "buffer" : 0
        },
        {
            "byteLength" : 2376,
            "byteOffset" : 41320,
            "buffer" : 0
        }
    ],
    "buffers" : [
        {
            "uri" : "data:application/octet-stream;base64,",
            "byteLength" : 43696
        }
    ]
}
