{
    "asset" : {
        "generator" : "Khronos glTF Blender I/O v0.9.12",
        "version" : "2.0"
    },
    "scene" : 0,
    "scenes" : [
        {
            "nodes" : [
                0,
                1,
                2,
                3,
                4
            ],
            "name" : "Scene"
        }
    ],
    "nodes" : [
        {
            "mesh" : 0,
            "rotation" : [
                0.7071068286895752,
                0,
                0,
                0.7071067094802856
            ],
            "name" : "Cube_018_Cube.018"
        },
        {
            "mesh" : 1,
            "rotation" : [
                0.7071068286895752,
                0,
                0,
                0.7071067094802856
            ],
            "name" : "Plane_004_Plane.005"
        },
        {
            "mesh" : 2,
            "rotation" : [
                0.7071068286895752,
                0,
                0,
                0.7071067094802856
            ],
            "name" : "Cube_017_Cube.017"
        },
        {
            "rotation" : [
                0.16907575726509094,
                0.7558803558349609,
                -0.27217137813568115,
                0.570947527885437
            ],
            "translation" : [
                4.076245307922363,
                5.903861999511719,
                -1.0054539442062378
            ],
            "name" : "Lamp"
        },
        {
            "rotation" : [
                0.483536034822464,
                0.33687159419059753,
                -0.20870360732078552,
                0.7804827094078064
            ],
            "translation" : [
                7.481131553649902,
                5.34366512298584,
                6.5076398849487305
            ],
            "name" : "Camera"
        }
    ],
    "materials" : [
        {
            "pbrMetallicRoughness" : {},
            "name" : "Material_002"
        },
        {
            "pbrMetallicRoughness" : {},
            "name" : "pc"
        },
        {
            "pbrMetallicRoughness" : {},
            "name" : "mouse"
        },
        {
            "pbrMetallicRoughness" : {},
            "name" : "books"
        },
        {
            "pbrMetallicRoughness" : {},
            "name" : "pages"
        }
    ],
    "meshes" : [
        {
            "name" : "Cube_018_Cube.018",
            "primitives" : [
                {
                    "material" : 0,
                    "indices" : 2,
                    "attributes" : {
                        "POSITION" : 0,
                        "NORMAL" : 1
                    }
                },
                {
                    "material" : 1,
                    "indices" : 5,
                    "attributes" : {
                        "POSITION" : 3,
                        "NORMAL" : 4
                    }
                }
            ]
        },
        {
            "name" : "Plane_004_Plane.005",
            "primitives" : [
                {
                    "material" : 2,
                    "indices" : 8,
                    "attributes" : {
                        "POSITION" : 6,
                        "NORMAL" : 7
                    }
                }
            ]
        },
        {
            "name" : "Cube_017_Cube.017",
            "primitives" : [
                {
                    "material" : 3,
                    "indices" : 11,
                    "attributes" : {
                        "POSITION" : 9,
                        "NORMAL" : 10
                    }
                },
                {
                    "material" : 4,
                    "indices" : 14,
                    "attributes" : {
                        "POSITION" : 12,
                        "NORMAL" : 13
                    }
                }
            ]
        }
    ],
    "accessors" : [
        {
            "min" : [
                -4.966847896575928,
                -7.2427849769592285,
                -1.2532609701156616
            ],
            "max" : [
                -4.966847896575928,
                -6.658594131469727,
                -0.9846540093421936
            ],
            "type" : "VEC3",
            "count" : 4,
            "bufferView" : 0,
            "componentType" : 5126
        },
        {
            "componentType" : 5126,
            "count" : 4,
            "bufferView" : 1,
            "type" : "VEC3"
        },
        {
            "componentType" : 5123,
            "count" : 6,
            "bufferView" : 2,
            "type" : "SCALAR"
        },
        {
            "min" : [
                -5.122265815734863,
                -7.247416019439697,
                -1.2599550485610962
            ],
            "max" : [
                -4.926278114318848,
                -6.653963088989258,
                -0.8462129831314087
            ],
            "type" : "VEC3",
            "count" : 240,
            "bufferView" : 3,
            "componentType" : 5126
        },
        {
            "componentType" : 5126,
            "count" : 240,
            "bufferView" : 4,
            "type" : "VEC3"
        },
        {
            "componentType" : 5123,
            "count" : 534,
            "bufferView" : 5,
            "type" : "SCALAR"
        },
        {
            "min" : [
                -4.675012111663818,
                -7.244744777679443,
                -0.8752610087394714
            ],
            "max" : [
                -4.581274032592773,
                -7.188115119934082,
                -0.85104900598526
            ],
            "type" : "VEC3",
            "count" : 586,
            "bufferView" : 6,
            "componentType" : 5126
        },
        {
            "componentType" : 5126,
            "count" : 586,
            "bufferView" : 7,
            "type" : "VEC3"
        },
        {
            "componentType" : 5123,
            "count" : 1188,
            "bufferView" : 8,
            "type" : "SCALAR"
        },
        {
            "min" : [
                -5.102077007293701,
                -8.034605026245117,
                -0.9977489709854126
            ],
            "max" : [
                -4.852280139923096,
                -7.849930763244629,
                -0.9599260091781616
            ],
            "type" : "VEC3",
            "count" : 357,
            "bufferView" : 9,
            "componentType" : 5126
        },
        {
            "componentType" : 5126,
            "count" : 357,
            "bufferView" : 10,
            "type" : "VEC3"
        },
        {
            "componentType" : 5123,
            "count" : 573,
            "bufferView" : 11,
            "type" : "SCALAR"
        },
        {
            "min" : [
                -5.102077007293701,
                -8.034605026245117,
                -0.9925400018692017
            ],
            "max" : [
                -4.852280139923096,
                -7.85972785949707,
                -0.9619590044021606
            ],
            "type" : "VEC3",
            "count" : 379,
            "bufferView" : 12,
            "componentType" : 5126
        },
        {
            "componentType" : 5126,
            "count" : 379,
            "bufferView" : 13,
            "type" : "VEC3"
        },
        {
            "componentType" : 5123,
            "count" : 753,
            "bufferView" : 14,
            "type" : "SCALAR"
        }
    ],
    "bufferViews" : [
        {
            "byteLength" : 48,
            "byteOffset" : 0,
            "buffer" : 0
        },
        {
            "byteLength" : 48,
            "byteOffset" : 48,
            "buffer" : 0
        },
        {
            "byteLength" : 12,
            "byteOffset" : 96,
            "buffer" : 0
        },
        {
            "byteLength" : 2880,
            "byteOffset" : 108,
            "buffer" : 0
        },
        {
            "byteLength" : 2880,
            "byteOffset" : 2988,
            "buffer" : 0
        },
        {
            "byteLength" : 1068,
            "byteOffset" : 5868,
            "buffer" : 0
        },
        {
            "byteLength" : 7032,
            "byteOffset" : 6936,
            "buffer" : 0
        },
        {
            "byteLength" : 7032,
            "byteOffset" : 13968,
            "buffer" : 0
        },
        {
            "byteLength" : 2376,
            "byteOffset" : 21000,
            "buffer" : 0
        },
        {
            "byteLength" : 4284,
            "byteOffset" : 23376,
            "buffer" : 0
        },
        {
            "byteLength" : 4284,
            "byteOffset" : 27660,
            "buffer" : 0
        },
        {
            "byteLength" : 1146,
            "byteOffset" : 31944,
            "buffer" : 0
        },
        {
            "byteLength" : 4548,
            "byteOffset" : 33092,
            "buffer" : 0
        },
        {
            "byteLength" : 4548,
            "byteOffset" : 37640,
            "buffer" : 0
        },
        {
            "byteLength" : 1506,
            "byteOffset" : 42188,
            "buffer" : 0
        }
    ],
    "buffers" : [
        {
            "uri" : "data:application/octet-stream;base64,",
            "byteLength" : 43696
        }
    ]
}
