{
    "asset" : {
        "generator" : "Khronos glTF Blender I/O v0.9.12",
        "version" : "2.0"
    },
    "scene" : 0,
    "scenes" : [
        {
            "nodes" : [
                0,
                1,
                2
            ],
            "name" : "Scene"
        }
    ],
    "nodes" : [
        {
            "mesh" : 0,
            "rotation" : [
                0.7071068286895752,
                0,
                0,
                0.7071067094802856
            ],
            "name" : "Cube_035_Cube.036"
        },
        {
            "rotation" : [
                0.16907575726509094,
                0.7558803558349609,
                -0.27217137813568115,
                0.570947527885437
            ],
            "translation" : [
                4.076245307922363,
                5.903861999511719,
                -1.0054539442062378
            ],
            "name" : "Lamp"
        },
        {
            "rotation" : [
                0.483536034822464,
                0.33687159419059753,
                -0.20870360732078552,
                0.7804827094078064
            ],
            "translation" : [
                7.481131553649902,
                5.34366512298584,
                6.5076398849487305
            ],
            "name" : "Camera"
        }
    ],
    "materials" : [
        {
            "pbrMetallicRoughness" : {},
            "name" : "Material_005"
        }
    ],
    "meshes" : [
        {
            "name" : "Cube_035_Cube.036",
            "primitives" : [
                {
                    "material" : 0,
                    "indices" : 2,
                    "attributes" : {
                        "POSITION" : 0,
                        "NORMAL" : 1
                    }
                }
            ]
        }
    ],
    "accessors" : [
        {
            "min" : [
                -4.4028239250183105,
                -3.2785449028015137,
                -1.1702879667282104
            ],
            "max" : [
                -3.723737955093384,
                -2.454030990600586,
                -0.1447169929742813
            ],
            "type" : "VEC3",
            "count" : 392,
            "bufferView" : 0,
            "componentType" : 5126
        },
        {
            "componentType" : 5126,
            "count" : 392,
            "bufferView" : 1,
            "type" : "VEC3"
        },
        {
            "componentType" : 5123,
            "count" : 1116,
            "bufferView" : 2,
            "type" : "SCALAR"
        }
    ],
    "bufferViews" : [
        {
            "byteLength" : 4704,
            "byteOffset" : 0,
            "buffer" : 0
        },
        {
            "byteLength" : 4704,
            "byteOffset" : 4704,
            "buffer" : 0
        },
        {
            "byteLength" : 2232,
            "byteOffset" : 9408,
            "buffer" : 0
        }
    ],
    "buffers" : [
        {
            "uri" : "data:application/octet-stream;base64,",
            "byteLength" : 11640
        }
    ]
}
