{
    "asset" : {
        "version" : "2.0",
        "generator" : "Khronos glTF Blender I/O v0.9.12"
    },
    "scene" : 0,
    "scenes" : [
        {
            "name" : "Scene",
            "nodes" : [
                0,
                1,
                2,
                3,
                4,
                5,
                6,
                7,
                8
            ]
        }
    ],
    "nodes" : [
        {
            "translation" : [
                7.481131553649902,
                5.343664646148682,
                6.507641792297363
            ],
            "name" : "Camera.003",
            "rotation" : [
                0.8937963247299194,
                0.09062855690717697,
                -0.3857799172401428,
                0.20997287333011627
            ]
        },
        {
            "translation" : [
                4.076245307922363,
                5.903862476348877,
                -1.0054532289505005
            ],
            "name" : "Lamp.003",
            "rotation" : [
                0.5232754349708557,
                0.3420339822769165,
                -0.7269423604011536,
                0.2841661274433136
            ]
        },
        {
            "mesh" : 0,
            "name" : "Cube_013_Cube.012",
            "rotation" : [
                1,
                0,
                0,
                -1.3435885648505064e-07
            ]
        },
        {
            "translation" : [
                7.481131553649902,
                5.343664646148682,
                6.507641792297363
            ],
            "name" : "Camera.002",
            "rotation" : [
                0.8937963247299194,
                0.09062855690717697,
                -0.3857799172401428,
                0.20997287333011627
            ]
        },
        {
            "translation" : [
                4.076245307922363,
                5.903862476348877,
                -1.0054532289505005
            ],
            "name" : "Lamp.002",
            "rotation" : [
                0.5232754349708557,
                0.3420339822769165,
                -0.7269423604011536,
                0.2841661274433136
            ]
        },
        {
            "translation" : [
                7.481131553649902,
                5.343664646148682,
                6.507641792297363
            ],
            "name" : "Camera.001",
            "rotation" : [
                0.8937963247299194,
                0.09062855690717697,
                -0.3857799172401428,
                0.20997287333011627
            ]
        },
        {
            "translation" : [
                4.076245307922363,
                5.903862476348877,
                -1.0054532289505005
            ],
            "name" : "Lamp.001",
            "rotation" : [
                0.5232754349708557,
                0.3420339822769165,
                -0.7269423604011536,
                0.2841661274433136
            ]
        },
        {
            "translation" : [
                4.076245307922363,
                5.903861999511719,
                -1.0054539442062378
            ],
            "name" : "Lamp",
            "rotation" : [
                0.16907575726509094,
                0.7558803558349609,
                -0.27217137813568115,
                0.570947527885437
            ]
        },
        {
            "translation" : [
                7.481131553649902,
                5.34366512298584,
                6.5076398849487305
            ],
            "name" : "Camera",
            "rotation" : [
                0.483536034822464,
                0.33687159419059753,
                -0.20870360732078552,
                0.7804827094078064
            ]
        }
    ],
    "materials" : [
        {
            "pbrMetallicRoughness" : {
                "baseColorFactor" : [
                    0.7340260148048401,
                    0.3233200013637543,
                    0.07434900104999542,
                    1
                ],
                "metallicFactor" : 0,
                "roughnessFactor" : 1
            },
            "name" : "BMD_BeechWood.005"
        }
    ],
    "meshes" : [
        {
            "primitives" : [
                {
                    "attributes" : {
                        "POSITION" : 0,
                        "TEXCOORD_0" : 1,
                        "NORMAL" : 2
                    },
                    "indices" : 3,
                    "material" : 0
                }
            ],
            "name" : "Cube_013_Cube.012"
        }
    ],
    "accessors" : [
        {
            "min" : [
                -0.5243510007858276,
                -0.6185600161552429,
                -2.704709053039551
            ],
            "bufferView" : 0,
            "count" : 241,
            "componentType" : 5126,
            "type" : "VEC3",
            "max" : [
                0.48390400409698486,
                -0.18682600557804108,
                -0.6196939945220947
            ]
        },
        {
            "count" : 241,
            "componentType" : 5126,
            "bufferView" : 1,
            "type" : "VEC2"
        },
        {
            "count" : 241,
            "componentType" : 5126,
            "bufferView" : 2,
            "type" : "VEC3"
        },
        {
            "count" : 456,
            "componentType" : 5123,
            "bufferView" : 3,
            "type" : "SCALAR"
        }
    ],
    "bufferViews" : [
        {
            "byteLength" : 2892,
            "byteOffset" : 0,
            "buffer" : 0
        },
        {
            "byteLength" : 1928,
            "byteOffset" : 2892,
            "buffer" : 0
        },
        {
            "byteLength" : 2892,
            "byteOffset" : 4820,
            "buffer" : 0
        },
        {
            "byteLength" : 912,
            "byteOffset" : 7712,
            "buffer" : 0
        }
    ],
    "buffers" : [
        {
            "uri" : "data:application/octet-stream;base64,",
            "byteLength" : 8624
        }
    ]
}
