{
  "asset": {
    "version": "2.0",
    "generator": "THREE.GLTFExporter"
  },
  "scenes": [
    {
      "nodes": [
        2
      ],
      "name": "scene"
    }
  ],
  "scene": 0,
  "nodes": [
    {
      "matrix": [
        -0.29086463988415207,
        0.9551711836069672,
        -0.05518905713292122,
        0,
        -0.771100816393032,
        -0.19988334686566755,
        0.6045246901767561,
        0,
        0.5663932028670787,
        0.21839119017675562,
        0.7946722998123636,
        0,
        4.076245,
        1.005454,
        5.903862,
        1
      ],
      "name": "point",
      "extensions": {
        "KHR_lights_punctual": {
          "light": 0
        }
      }
    },
    {
      "matrix": [
        5.299968075820219,
        0.018290884430609704,
        -0.001959294072074374,
        0,
        0.00020635020115002372,
        -0.00623691785882452,
        0.49996105675864083,
        0,
        0.00009897535142188922,
        -0.028717484511694206,
        -0.00035828593682178146,
        0,
        0.4474049394598678,
        -8.085404996293612,
        0.8696263476069802,
        1
      ],
      "name": "wallsmall",
      "mesh": 0
    },
    {
      "matrix": [
        1,
        0,
        0,
        0,
        0,
        2.220446049250313e-16,
        -1,
        0,
        0,
        1,
        2.220446049250313e-16,
        0,
        0,
        0,
        0,
        1
      ],
      "name": "Scene",
      "children": [
        0,
        1
      ]
    }
  ],
  "extensions": {
    "KHR_lights_punctual": {
      "lights": [
        {
          "name": "point",
          "color": [
            1,
            1,
            1
          ],
          "intensity": 1,
          "type": "point",
          "range": 30.000285004061315
        }
      ]
    }
  },
  "bufferViews": [
    {
      "buffer": 0,
      "byteOffset": 0,
      "byteLength": 7632,
      "target": 34962,
      "byteStride": 12
    },
    {
      "buffer": 0,
      "byteOffset": 7632,
      "byteLength": 7632,
      "target": 34962,
      "byteStride": 12
    }
  ],
  "buffers": [
    {
      "byteLength": 15264,
      "uri": "data:application/octet-stream;base64,"
    }
  ],
  "accessors": [
    {
      "bufferView": 0,
      "componentType": 5126,
      "count": 636,
      "max": [
        0.9395002126693726,
        0.9971901178359985,
        2.077665090560913
      ],
      "min": [
        -1.060500979423523,
        -1.0028109550476074,
        -8.621286392211914
      ],
      "type": "VEC3"
    },
    {
      "bufferView": 1,
      "componentType": 5126,
      "count": 636,
      "max": [
        1,
        1,
        1
      ],
      "min": [
        -1,
        -1,
        -1
      ],
      "type": "VEC3"
    }
  ],
  "materials": [
    {
      "pbrMetallicRoughness": {
        "baseColorFactor": [
          0.64,
          0.64,
          0.64,
          1
        ],
        "metallicFactor": 0.5,
        "roughnessFactor": 0.5
      },
      "name": "Paredes_1"
    }
  ],
  "meshes": [
    {
      "primitives": [
        {
          "mode": 4,
          "attributes": {
            "POSITION": 0,
            "NORMAL": 1
          },
          "material": 0
        }
      ]
    }
  ],
  "extensionsUsed": [
    "KHR_lights_punctual"
  ]
}