{
    "asset" : {
        "version" : "2.0",
        "generator" : "Khronos glTF Blender I/O v0.9.12"
    },
    "scene" : 0,
    "scenes" : [
        {
            "name" : "Scene",
            "nodes" : [
                0
            ]
        }
    ],
    "nodes" : [
        {
            "mesh" : 0,
            "name" : "Cube_001.001",
            "scale" : [
                5.394196033477783,
                0.028719889000058174,
                1.584710955619812
            ],
            "translation" : [
                1.2044520378112793,
                1.5849709510803223,
                -8.18181324005127
            ],
            "rotation" : [
                0.7071068286895752,
                0,
                0,
                0.7071067094802856
            ]
        }
    ],
    "materials" : [
        {
            "name" : "Paredes_1",
            "pbrMetallicRoughness" : {}
        }
    ],
    "meshes" : [
        {
            "name" : "Cube.002",
            "primitives" : [
                {
                    "attributes" : {
                        "POSITION" : 0,
                        "NORMAL" : 1
                    },
                    "material" : 0,
                    "indices" : 2
                }
            ]
        }
    ],
    "accessors" : [
        {
            "min" : [
                -1.2232869863510132,
                -5.214278221130371,
                -1.0000009536743164
            ],
            "componentType" : 5126,
            "bufferView" : 0,
            "max" : [
                0.7767139077186584,
                2.013155937194824,
                1.0000009536743164
            ],
            "count" : 681,
            "type" : "VEC3"
        },
        {
            "componentType" : 5126,
            "count" : 681,
            "bufferView" : 1,
            "type" : "VEC3"
        },
        {
            "componentType" : 5123,
            "count" : 900,
            "bufferView" : 2,
            "type" : "SCALAR"
        }
    ],
    "bufferViews" : [
        {
            "byteLength" : 8172,
            "buffer" : 0,
            "byteOffset" : 0
        },
        {
            "byteLength" : 8172,
            "buffer" : 0,
            "byteOffset" : 8172
        },
        {
            "byteLength" : 1800,
            "buffer" : 0,
            "byteOffset" : 16344
        }
    ],
    "buffers" : [
        {
            "byteLength" : 18144,
            "uri" : "data:application/octet-stream;base64,"
        }
    ]
}
