{
    "asset" : {
        "version" : "2.0",
        "generator" : "Khronos glTF Blender I/O v0.9.12"
    },
    "scene" : 0,
    "scenes" : [
        {
            "name" : "Scene",
            "nodes" : [
                0,
                1,
                2,
                3,
                4,
                5,
                6,
                7,
                8,
                9,
                10,
                11,
                12,
                13,
                14,
                15,
                16,
                17,
                18
            ]
        }
    ],
    "nodes" : [
        {
            "translation" : [
                7.481131553649902,
                5.343664646148682,
                6.507641792297363
            ],
            "name" : "Camera.007",
            "rotation" : [
                0.8937963247299194,
                0.09062855690717697,
                -0.3857799172401428,
                0.20997287333011627
            ]
        },
        {
            "translation" : [
                4.076245307922363,
                5.903862476348877,
                -1.0054532289505005
            ],
            "name" : "Lamp.007",
            "rotation" : [
                0.5232754349708557,
                0.3420339822769165,
                -0.7269423604011536,
                0.2841661274433136
            ]
        },
        {
            "mesh" : 0,
            "name" : "Cube_003_Cube.004",
            "rotation" : [
                1,
                0,
                0,
                -1.3435885648505064e-07
            ]
        },
        {
            "name" : "Yup2Zup.001",
            "rotation" : [
                0.7071067690849304,
                0,
                0,
                0.7071067690849304
            ]
        },
        {
            "name" : "Yup2Zup",
            "rotation" : [
                0.7071067690849304,
                0,
                0,
                0.7071067690849304
            ]
        },
        {
            "translation" : [
                7.481131553649902,
                5.343664646148682,
                6.507641792297363
            ],
            "name" : "Camera.006",
            "rotation" : [
                0.8937963247299194,
                0.09062855690717697,
                -0.3857799172401428,
                0.20997287333011627
            ]
        },
        {
            "translation" : [
                4.076245307922363,
                5.903862476348877,
                -1.0054532289505005
            ],
            "name" : "Lamp.006",
            "rotation" : [
                0.5232754349708557,
                0.3420339822769165,
                -0.7269423604011536,
                0.2841661274433136
            ]
        },
        {
            "translation" : [
                7.481131553649902,
                5.343664646148682,
                6.507641792297363
            ],
            "name" : "Camera.005",
            "rotation" : [
                0.8937963247299194,
                0.09062855690717697,
                -0.3857799172401428,
                0.20997287333011627
            ]
        },
        {
            "translation" : [
                4.076245307922363,
                5.903862476348877,
                -1.0054532289505005
            ],
            "name" : "Lamp.005",
            "rotation" : [
                0.5232754349708557,
                0.3420339822769165,
                -0.7269423604011536,
                0.2841661274433136
            ]
        },
        {
            "translation" : [
                7.481131553649902,
                5.343664646148682,
                6.507641792297363
            ],
            "name" : "Camera.004",
            "rotation" : [
                0.8937963247299194,
                0.09062855690717697,
                -0.3857799172401428,
                0.20997287333011627
            ]
        },
        {
            "translation" : [
                4.076245307922363,
                5.903862476348877,
                -1.0054532289505005
            ],
            "name" : "Lamp.004",
            "rotation" : [
                0.5232754349708557,
                0.3420339822769165,
                -0.7269423604011536,
                0.2841661274433136
            ]
        },
        {
            "translation" : [
                7.481131553649902,
                5.343664646148682,
                6.507641792297363
            ],
            "name" : "Camera.003",
            "rotation" : [
                0.8937963247299194,
                0.09062855690717697,
                -0.3857799172401428,
                0.20997287333011627
            ]
        },
        {
            "translation" : [
                4.076245307922363,
                5.903862476348877,
                -1.0054532289505005
            ],
            "name" : "Lamp.003",
            "rotation" : [
                0.5232754349708557,
                0.3420339822769165,
                -0.7269423604011536,
                0.2841661274433136
            ]
        },
        {
            "translation" : [
                7.481131553649902,
                5.343664646148682,
                6.507641792297363
            ],
            "name" : "Camera.002",
            "rotation" : [
                0.8937963247299194,
                0.09062855690717697,
                -0.3857799172401428,
                0.20997287333011627
            ]
        },
        {
            "translation" : [
                4.076245307922363,
                5.903862476348877,
                -1.0054532289505005
            ],
            "name" : "Lamp.002",
            "rotation" : [
                0.5232754349708557,
                0.3420339822769165,
                -0.7269423604011536,
                0.2841661274433136
            ]
        },
        {
            "translation" : [
                7.481131553649902,
                5.343664646148682,
                6.507641792297363
            ],
            "name" : "Camera.001",
            "rotation" : [
                0.8937963247299194,
                0.09062855690717697,
                -0.3857799172401428,
                0.20997287333011627
            ]
        },
        {
            "translation" : [
                4.076245307922363,
                5.903862476348877,
                -1.0054532289505005
            ],
            "name" : "Lamp.001",
            "rotation" : [
                0.5232754349708557,
                0.3420339822769165,
                -0.7269423604011536,
                0.2841661274433136
            ]
        },
        {
            "translation" : [
                4.076245307922363,
                5.903861999511719,
                -1.0054539442062378
            ],
            "name" : "Lamp",
            "rotation" : [
                0.16907575726509094,
                0.7558803558349609,
                -0.27217137813568115,
                0.570947527885437
            ]
        },
        {
            "translation" : [
                7.481131553649902,
                5.34366512298584,
                6.5076398849487305
            ],
            "name" : "Camera",
            "rotation" : [
                0.483536034822464,
                0.33687159419059753,
                -0.20870360732078552,
                0.7804827094078064
            ]
        }
    ],
    "materials" : [
        {
            "pbrMetallicRoughness" : {
                "baseColorFactor" : [
                    0.6399999856948853,
                    0.6399999856948853,
                    0.6399999856948853,
                    1
                ],
                "metallicFactor" : 0,
                "roughnessFactor" : 1
            },
            "name" : "Paredes_1.001"
        }
    ],
    "meshes" : [
        {
            "primitives" : [
                {
                    "attributes" : {
                        "POSITION" : 0,
                        "NORMAL" : 1
                    },
                    "indices" : 2,
                    "material" : 0
                }
            ],
            "name" : "Cube_003_Cube.004"
        }
    ],
    "accessors" : [
        {
            "min" : [
                5.105827808380127,
                -3.1696829795837402,
                -8.347504615783691
            ],
            "bufferView" : 0,
            "count" : 395,
            "componentType" : 5126,
            "type" : "VEC3",
            "max" : [
                5.4131011962890625,
                -0.00026000000070780516,
                8.096138954162598
            ]
        },
        {
            "count" : 395,
            "componentType" : 5126,
            "bufferView" : 1,
            "type" : "VEC3"
        },
        {
            "count" : 636,
            "componentType" : 5123,
            "bufferView" : 2,
            "type" : "SCALAR"
        }
    ],
    "bufferViews" : [
        {
            "byteLength" : 4740,
            "byteOffset" : 0,
            "buffer" : 0
        },
        {
            "byteLength" : 4740,
            "byteOffset" : 4740,
            "buffer" : 0
        },
        {
            "byteLength" : 1272,
            "byteOffset" : 9480,
            "buffer" : 0
        }
    ],
    "buffers" : [
        {
            "uri" : "data:application/octet-stream;base64,",
            "byteLength" : 10752
        }
    ]
}
